<svg version="1" xmlns="http://www.w3.org/2000/svg" width="341.333" height="341.333" viewBox="0 0 256.000000 256.000000"><path d="M61.7 5.2c-.9 7.4-5.8 25.8-7.6 28.7-.8 1.2-3.1-.6-11.1-8.2-5.5-5.4-12.5-11.3-15.5-13.3-5.8-3.9-6.9-3.8-11.3.9l-2.3 2.4 6.8 4.6c3.7 2.5 11 8.7 16.2 13.7 5.2 5 10.8 9.8 12.4 10.7 4.3 2.2 9.1 1 12.1-3C64.8 37 70 19.5 71.8 6.2l.9-6.2H62.3l-.6 5.2z"/><path d="M85.9 2.1c-3.6 6.7-7.2 22.3-8.5 36.4-1.1 12.5-3.8 21.3-6.7 21.6-6.3.8-12.9-2.3-33.2-15.4C21.6 34.5 18.1 33 9.9 33c-6.7 0-8.3 1.5-9.2 8.3-.5 3.8-.5 3.9 2.1 3 1.5-.4 5.2-.8 8.3-.7 5.8 0 6 .1 23.4 11.4 21.1 13.6 30.2 17.2 38.3 15.1 8.8-2.4 12.7-10.3 14.7-29.6 1.5-14.6 4.2-26.2 7.9-34L98.6 0h-5.8c-4.8 0-5.9.3-6.9 2.1z"/><path d="M102.3 3.4c-1.2 1.8-3 6.4-4.2 10.2-2.3 8-2.6 10.2-4.6 37.4-1.5 19.6-5 28.3-12.1 29.6-5 .9-14.1-1.8-23.9-7-4.4-2.4-11.4-6.2-15.6-8.5-7.6-4.1-13.7-6.6-18.8-7.7-4.6-1-14.5-1.1-18.8-.2l-4.3.9v5.5c0 3 .1 5.4.3 5.4.1 0 2.2-.6 4.7-1.4 10-3 20.5-.3 38 9.7 19.2 11.1 28.9 14.4 38.7 13.4 7.9-.8 12.4-4.1 16.2-11.9 1.7-3.5 3.3-7.9 3.6-9.8.3-1.9.7-4.6 1-6 .7-3.8 1.4-12.5 2-23.5.8-13 3-23.8 6.2-29.7 2.9-5.4 5.5-7.4 11-8.7 3-.7 1.7-.9-6.7-1L104.5 0l-2.2 3.4zM137.8.7c3.4.2 9 .2 12.5 0 3.4-.2.6-.3-6.3-.3-6.9 0-9.7.1-6.2.3z"/><path d="M212.5 5.2c-18 6.7-27.6 7.7-63 6.7-10.1-.3-11.4-.1-16.5 2.3-9.8 4.6-15 10.9-18.8 22.8-3.1 9.8-3.8 15.3-4.7 37-.9 23.6-1.9 31.1-4.4 35.5-3.2 5.7-9.2 4.2-25.8-6.6-16.7-10.8-28.9-14.6-44.1-13.6-9.4.5-15.3 2.2-24.7 6.8C.2 101.2-.2 101.7.2 108.8l.3 6.3 5.1-3.9c14.6-10.9 30.4-14.5 45.8-10.3 9 2.5 13.5 4.6 23.1 11.1 9.3 6.3 15 9.1 21 10.5 8.2 1.9 15.1-.9 18.5-7.4 3.8-7.5 4.6-13.1 5.5-36.1 1.4-37.4 5-49.1 17-55.2 3.2-1.7 5.4-2 13-1.8 27.8.9 38.5.4 51.5-2.6 10.1-2.3 24.8-7.8 29.2-10.8 2-1.4 1.9-1.5-1.3-3.1-6.3-3.3-8-3.3-16.4-.3zM233.1 16c-2.2 2.2-4.2 4.8-4.3 5.7 0 1-.2 2.5-.3 3.3-.3 2.7 2.4 6.8 5.7 8.8 3.5 2.1 8.6 3.7 15.3 4.8 2.2.3 4.4.9 4.9 1.2.5.3.7-.2.3-1-.3-.9-1.1-3.4-1.8-5.7-1.1-3.6-1.7-4.2-5.3-5.2-2.3-.6-5.2-1.6-6.4-2.2l-2.4-1.1 3.2-2.9 3.2-2.9-3.3-3.4c-1.8-1.9-3.6-3.4-4-3.4-.4 0-2.5 1.8-4.8 4z"/><path d="M190.4 35.5c-14.5 2.5-23.7 7-31.9 15.6-11.5 12-17.8 33-16.9 56.4.3 8.3 1.4 23.9 1.9 26.3.1.9.6 3.7 1 6.2 1 6.1 4.1 15.2 7.8 22.4 12.9 25.9 42.7 48 83.6 62 15.6 5.3 14.7 5.3 16.5-.1.9-2.5 1.5-4.7 1.3-4.8-.1 0-4.2-1.4-9.2-2.9-12.1-3.8-30.2-11.7-40-17.2-31-17.8-47.6-40.2-51-68.6-1.2-9.7-1.4-12.9-1.5-24.8-.2-27.7 6-43.8 20.4-53.4 14.6-9.7 39.5-10.5 74.4-2.5 4.5 1 8.5 1.9 8.7 1.9.8 0 .5-8.4-.3-9.6-.7-1.1-3-1.8-9.7-3-1.6-.3-4.6-.9-6.5-1.4-3.3-.8-5.4-1.2-16.4-2.6-9.1-1.1-25.1-1.1-32.2.1z"/><path d="M206.8 71.6c-15.9 3.8-26.1 14.8-30.3 32.6-8.2 34.9 15 62.5 67.8 80.7l11.7 4v-10.6l-10.7-3.9c-13-4.6-30.7-13.4-38.4-19.1-13.2-9.8-20.9-22.1-21.7-34.7-.5-8 1.5-18.2 4.9-24.7 7.7-15.1 25.9-19.2 54.7-12.1l11.2 2.8v-5.3c0-5.9 1.3-5.1-14-8.8-9-2.2-28-2.7-35.2-.9z"/><path d="M219.7 89.5c-8.5 2.2-14.5 8.6-16.8 17.9-4.6 18.9 9.8 37.1 42.1 53.3l10.5 5.3.3-5.1c.2-2.9 0-5.5-.5-5.9-.4-.4-4.4-2.6-8.8-5-16.7-8.9-28-18.3-32-26.5-3.9-8.1-1.5-19.9 4.7-23.1 6-3.1 19-1.9 34.9 3.1 1.7.6 1.9.1 1.9-4.9 0-3.1-.3-5.6-.7-5.6-.5 0-4.2-1-8.3-2.1-9.3-2.5-20.9-3.1-27.3-1.4z"/><path d="M243 119.1c-7.1 4.4-7.3 13.8-.2 21.2 2.6 2.7 11.2 8.7 12.5 8.7.4 0 .7-2.6.7-5.8 0-5.2-.3-5.9-3-7.7-3.1-2.1-5.7-6.1-4.7-7.2.4-.3 2.3-.6 4.2-.5l3.5.1V123c0-2.8-.3-5.1-.7-5.1-4.7-.8-9.8-.3-12.3 1.2zM45.6 128c-13.2 3.5-24.7 10.3-38.1 22.4L0 157.2v8.1l.1 8.2 2-2.5c12.2-15 28.5-27.2 42.9-32.1 9.8-3.4 25-3.2 34.7.3 13.8 5 25.7 14.7 40.3 32.8 31.6 39.3 60.8 61.5 99.6 75.6l9.1 3.3 5.3-3.6c2.8-1.9 4.8-3.8 4.4-4.2-.5-.5-3.1-1.4-5.9-2.1-13.9-3.8-36.5-14.2-49.9-23.2-17.2-11.6-37.4-30.8-54.5-52-17.7-21.9-29.8-31.4-48.1-37.5-7.2-2.4-26.1-2.6-34.4-.3z"/><path d="M61.9 159.2c-7.8 1-15.1 4.1-24.6 10.4-8 5.4-26 22.2-33.7 31.6C-.2 206-.2 206 .5 212.5c.3 3.6 1 6.5 1.3 6.4.4 0 3.9-3.8 7.7-8.5C24.2 192.5 41 177.8 53 172.3c6.9-3.2 16.2-4.1 21-2.1 4.1 1.8 18 11.9 27.6 20.2 3.8 3.3 15.9 15 26.9 26 21.2 21.3 29.4 28.8 39.3 35.5l6.1 4.1h11.8c10.6-.1 11.5-.2 8.8-1.4-20-8.8-27.3-14.3-55-41.7-29.4-29.1-30.1-29.8-45-41.1-15.9-12.1-21.2-14.1-32.6-12.6z"/><path d="M61 198.7c-9.8 1.5-23.9 8.7-34.5 17.6C19.9 221.9 9 233.1 9 234.2c0 .4 1.4 2.3 3.1 4.2l3 3.5 8.7-8.8c9.7-9.8 14.2-13.4 22.2-17.9 15.7-8.9 27.9-8.4 37.4 1.4 7.9 8.2 12.6 20.1 12.7 32.6l.1 6.8h4.8c5.5 0 5.8-.5 5.4-9.3-.9-17.3-9.8-34.5-22.1-42.6-6.5-4.3-15.8-6.5-23.3-5.4z"/><path d="M47.1 234.7C41.7 236 30 243 26.5 246.9c-2.2 2.6-1.6 3.3 4.6 5.2 3.3 1 3.9.9 8-2.1 11.6-8.4 20.3-7.8 25.8 2 2.2 3.9 2.4 4 7.6 4 5.4 0 5.4 0 4.5-2.5-5.8-15.2-16.9-22.2-29.9-18.8z"/></svg>