<svg id="Layer_1" data-name="Layer 1" xmlns="http://www.w3.org/2000/svg" viewBox="0 0 1412.36 1415"><defs><style>.cls-1,.cls-2{fill:#5f27cd;}.cls-1{stroke:#5f27cd;}.cls-1,.cls-2,.cls-3{stroke-miterlimit:10;stroke-width:15px;}.cls-2,.cls-3{stroke:#2e86de;}.cls-3{fill:#2e86de;}</style></defs><path class="cls-1" d="M1221,1305.94c-52.75-9.65-59.09-45.55-67.1-91-9-50.8-20.11-114-100.93-164.35-40.46-25.19-79.3-41-118.73-48.31-35.23-6.53-70.16-6.09-106.79,1.35-68,13.81-132.25,50.56-194.37,86.11-58.21,33.31-118.41,67.76-183.15,84.77-34.84,9.15-68,12.61-101.51,10.57-37.63-2.3-74.58-11.43-113-27.92-67.09-28.81-133.76-38.82-198.16-29.76a333.1,333.1,0,0,0-35.44,7v3.09a336.16,336.16,0,0,1,35.86-7.09c63.85-9,130,1,196.55,29.55,47.26,20.3,91.1,28.67,132.44,28.67,99.68,0,184.79-48.7,267.87-96.25,64.76-37.06,125.93-72.06,193.47-85.77,36.25-7.36,70.81-7.8,105.65-1.34,39.06,7.24,77.56,22.91,117.69,47.91,35.51,22.1,79.69,49.62,99.57,162.32,4.14,23.5,7.71,43.78,17.19,60.11,10.53,18.14,27.15,28.73,52.32,33.33,74.28,13.57,118.46,35.07,139,67.65a91.13,91.13,0,0,1,10.87,25h3.11a94.33,94.33,0,0,0-11.45-26.59C1341,1341.6,1296.17,1319.68,1221,1305.94Z" transform="translate(5.64 5.97)"/><path class="cls-1" d="M1163.09,1339.05c-62.93-9.44-68.8-28.27-81.64-69.52-11.2-35.94-28.11-90.26-94.18-169.21-88.89-106.23-183.21-39.82-292.43,37.09-110.72,78-236.21,166.34-389.4,102.74-58.69-24.37-117.95-36.45-176.12-35.9a404.1,404.1,0,0,0-127.46,22v3.17a401,401,0,0,1,127.49-22.14c57.78-.57,116.62,11.45,174.94,35.67,69,28.66,138.68,29.21,212.88,1.67,64.87-24.07,123.09-65.07,179.4-104.72,54-38,105-73.93,152.67-86.73,52.72-14.16,95.85,1.44,135.73,49.1,65.68,78.5,82.49,132.47,93.61,168.18,12.83,41.2,19.27,61.88,84.06,71.59,37.88,5.69,61.62,19.67,70.55,41.56a57.3,57.3,0,0,1,4,18h3a60.12,60.12,0,0,0-4.18-19.09C1226.61,1359.5,1202.09,1344.9,1163.09,1339.05Z" transform="translate(5.64 5.97)"/><path class="cls-1" d="M851.7,1203.28c-27.83-18.54-65.11-17.85-110.81,2.06-36.3,15.82-78,43.76-124,83.05-47,40.16-89,84.21-115.16,113.14h4c26.21-28.86,67.25-71.71,113.07-110.86s87.22-66.88,123.25-82.58c44.71-19.48,81-20.26,107.94-2.31,62.52,41.68,95.73,112.1,125,174.22,3.45,7.32,6.84,14.52,10.22,21.53h3.33c-3.58-7.42-7.17-15-10.84-22.81C948.31,1316.24,914.91,1245.42,851.7,1203.28Z" transform="translate(5.64 5.97)"/><path class="cls-1" d="M771.73,1309.31c-13-9.24-29.8-9-49.87.6-15.78,7.58-33.67,21-53.16,39.92-18.65,18.08-35.26,37.83-46.26,51.7h3.87C657.48,1362.64,729,1282.71,770,1311.75c26.53,18.82,42,56.13,55.43,89.78h3.23C815,1367.21,799.27,1328.83,771.73,1309.31Z" transform="translate(5.64 5.97)"/><path class="cls-1" d="M279.52,1306.64c-25.73-6.58-52.33-13.37-76.17-21.53-59.31-20.29-128-3.22-175.2,14.67-9.26,3.51-18.06,7.19-26.29,10.86v3.28c8.54-3.83,17.73-7.69,27.41-11.35C76,1284.86,143.93,1268,202.38,1288c24,8.19,50.61,15,76.39,21.59,58,14.82,112.77,28.82,116.6,54.25,1.6,10.7-5.77,23.18-22.38,37.74h4.38c15.73-14.45,22.63-27.09,21-38.18C394.21,1336,341.06,1322.36,279.52,1306.64Z" transform="translate(5.64 5.97)"/><path class="cls-1" d="M241.7,1350.45c-19.82-3.42-43.91-3.2-66.09.6-41.07,7-121.49,29.41-173.75,44.5v3.12C54,1383.6,135,1361.07,176.12,1354c21.85-3.75,45.57-4,65.07-.6,28.18,4.86,38.14,15.23,41.54,23.07,3.09,7.13,2.3,15.53-2.26,25h3.41c4.38-9.8,4.94-18.56,1.61-26.24C278.79,1359.85,258,1353.26,241.7,1350.45Z" transform="translate(5.64 5.97)"/><path class="cls-1" d="M124.79,798.61c45.24,30.4,74.65,74,100.6,112.46,29.45,43.65,54.88,81.34,94.69,87.35a75.58,75.58,0,0,0,11.34.84c30.75,0,67.21-17.74,113.49-55,34.73-28,63.62-53.45,89.11-75.93,53.81-47.48,92.68-81.78,135.68-92.92C713.62,764,761.79,776,836,816.68c60.64,33.25,132.88,56.15,198.19,62.82,30.4,3.1,58,2.45,79.91-1.88,23.14-4.58,39.3-12.92,48-24.81,11.94-16.26,14.81-46.56-39.34-98.54-64.73-62.14-138.32-69.61-216.23-77.53-51.63-5.24-105-10.66-158.9-32.35-61-24.55-113.87-67.06-161.76-130-35.39-46.47-76.74-68.48-119.59-63.64-29.22,3.3-57.91,18.65-85.27,45.63-27.54,27.15-52.28,64.67-73.51,111.5-15.75,34.74-33.24,52.5-53.46,54.29-43.9,3.89-94.65-69.94-143.72-141.33C85.82,485.22,60.48,448.36,36.41,422,23.9,408.26,12.48,398.15,1.86,391.45v3.71c33.66,22.17,70.27,75.44,106,127.41,24.63,35.84,50.1,72.9,74.6,99.88,26.17,28.82,48.55,42.9,68.27,42.89,1.21,0,2.4-.05,3.59-.15,21.39-1.9,39.68-20.22,55.92-56,21.08-46.5,45.61-83.71,72.89-110.61,26.87-26.49,55-41.56,83.5-44.78,41.74-4.72,82.15,16.89,116.86,62.48,48.23,63.35,101.56,106.18,163,130.93,54.28,21.85,107.88,27.29,159.71,32.56,77.39,7.86,150.48,15.28,214.47,76.71,52.57,50.47,50.22,79.3,39,94.6-16.36,22.28-63.17,31.8-125.2,25.47-64.93-6.62-136.76-29.39-197.06-62.46C762.49,773,713.68,760.93,669,772.52c-43.69,11.32-82.8,45.82-136.92,93.58-25.46,22.46-54.33,47.93-89,75.84-51.4,41.37-90.32,58.37-122.5,53.52-38.51-5.82-63.6-43-92.65-86.07-26.1-38.69-55.69-82.55-101.42-113.27-37.91-25.48-74-38.27-107.7-38.27A129.88,129.88,0,0,0,1.86,759v3C39.73,756.91,81,769.15,124.79,798.61Z" transform="translate(5.64 5.97)"/><path class="cls-1" d="M58,1093.08c46.28.74,98.06,10,143.75,18.14,65.45,11.69,117.15,20.92,123.54-.26,9.61-31.84-21.63-58.09-73.39-101.58-37.14-31.2-83.36-70-132.92-125.84C81.75,841.6,44.71,822.66,8.88,827.23c-2.19.28-4.54.68-7,1.22v3.06c2.43-.54,4.9-1,7.41-1.31,34.78-4.42,70.94,14.19,107.47,55.33,49.71,56,96,94.88,133.23,126.15,50.82,42.7,81.5,68.47,72.46,98.42-5.62,18.61-58.69,9.14-120.14-1.83C136,1096.44,58.21,1082.56,1.86,1094.59v3.13C17.82,1094.27,36.49,1092.73,58,1093.08Z" transform="translate(5.64 5.97)"/><path class="cls-1" d="M189.88,1077.17c26,0,40.56-4.74,43.42-14.2,6.25-20.67-45.54-58-77-78.42-44.47-28.89-97.46-56.12-126-64.75a176.46,176.46,0,0,0-28.46-6.12v3a172.69,172.69,0,0,1,27.6,6c28.29,8.56,81,35.64,125.23,64.4,51.51,33.46,79.83,61.51,75.74,75-4,13.19-39.61,15.62-100.29,6.83A1098.4,1098.4,0,0,1,1.86,1041.7v3.11a1100.17,1100.17,0,0,0,127.85,27.08Q166.1,1077.17,189.88,1077.17Z" transform="translate(5.64 5.97)"/><path class="cls-1" d="M61.1,1022.9c12,0,18.65-2.29,20.05-6.9,2.78-9.2-17.22-24.5-34.48-35.71A332.45,332.45,0,0,0,1.86,955.76V959A333.37,333.37,0,0,1,45,982.8c22.17,14.41,34.91,26.8,33.24,32.33-2.71,8.94-42.77,3.87-76.42-3.58v3c10.08,2.22,21.37,4.4,32.43,6A193.7,193.7,0,0,0,61.1,1022.9Z" transform="translate(5.64 5.97)"/><path class="cls-2" d="M334.11,943.07a35.4,35.4,0,0,0,8.42,1c29.67,0,66-34.9,107.46-74.76,28.06-27,59.86-57.53,93.54-80.86C582,761.79,617.16,748.6,651,748.12c44.83-.64,82.2-3.32,108.08-7.75,26.7-4.57,40.74-10.88,41.75-18.77,1.29-10.17-18.16-20.61-59.46-31.92-65.44-17.93-95.23-48.88-133-88.06-24.57-25.53-52.43-54.46-95.35-84.32-11.33-7.88-24.36-10.41-38.71-7.5-44.49,9-102.41,69.6-172.15,180.08A246.26,246.26,0,0,0,265.83,791.4c-4.68,39.26-.53,74.38,12,101.55C290.11,919.67,309.58,937,334.11,943.07Zm-65.3-151.32a243.17,243.17,0,0,1,35.91-100.27C374,581.73,431.28,521.59,474.93,512.74a54.07,54.07,0,0,1,10.63-1.1,44.23,44.23,0,0,1,25.78,8.12c42.68,29.69,70.42,58.51,94.9,83.94,38,39.51,68.08,70.72,134.32,88.87,17.7,4.85,58.71,17.35,57.27,28.65-.46,3.62-6.17,10.53-39.27,16.2-25.74,4.4-62.95,7.06-107.62,7.7-34.43.49-70.13,13.86-109.12,40.86-33.87,23.47-65.77,54.12-93.91,81.17-41,39.42-76.92,73.93-105.34,73.92a31.77,31.77,0,0,1-7.74-.92c-23.61-5.84-42.39-22.6-54.3-48.45C268.25,865,264.2,830.46,268.81,791.75Z" transform="translate(5.64 5.97)"/><path class="cls-1" d="M915.43,807.88c31.59,7.67,85.11,19,132,25.78,25.9,3.73,46.11,5.6,60.8,5.6,17.2,0,26.83-2.56,29.16-7.68,2.48-5.46-3.1-12.92-17.07-22.82-1.87-1.68-40.75-36.34-88.37-64.62-28.58-17-54.68-28.38-77.59-33.9-28.86-7-52.74-4.54-71,7.16-33.5,21.5-48,37.8-45.79,51.3C840.11,783.71,862.66,795.06,915.43,807.88Zm-30.43-88c11-7,24.11-10.57,39.28-10.57a126.18,126.18,0,0,1,29.36,3.79c22.61,5.44,48.43,16.73,76.74,33.55,48.32,28.69,87.6,64,88,64.34l.13.12c16.38,11.58,17.15,17,16.15,19.17-7.4,16.28-131.67-4.27-218.52-25.37-35.79-8.69-72.75-19.85-75.59-36.75C838.54,756.21,853.08,740.41,885,719.93Z" transform="translate(5.64 5.97)"/><path class="cls-1" d="M960,787c12,2.92,32.39,7.24,50.24,9.81a171.32,171.32,0,0,0,23.28,2.14c8.75,0,11.08-1.71,11.88-3.46,1.51-3.34-2.8-7-6.76-9.78A239.6,239.6,0,0,0,1005,761.1c-25.24-15-44.56-18.4-57.43-10.14-13.26,8.51-18.75,14.81-17.81,20.43C930.93,778.55,942.7,782.82,960,787Zm-10.84-33.53a26.19,26.19,0,0,1,14.41-3.88c30.18,0,72.63,37.95,73.13,38.4l.14.11c6.45,4.57,5.83,6.13,5.83,6.15-1.89,4.14-37.34.67-82-10.16-13.3-3.23-27-7.33-28-13.22C932,766.8,937.55,760.94,949.16,753.49Z" transform="translate(5.64 5.97)"/><path class="cls-2" d="M1399.22,781.46a285.32,285.32,0,0,0-24.4-22.59c-35-28.85-79.38-52.68-132-70.82-65.66-22.65-144.35-36.45-233.91-41-51.17-2.61-149.39-11.74-232.28-43.56C689.34,570,641,520.45,633,456.34c-9.31-74.16-.2-120.21,28.67-144.93,31.59-27,88.78-28.16,174.83-3.44,59.69,17.16,108,40.82,146.85,59.83,38.31,18.77,68.57,33.58,95.64,36.21,29.33,2.84,52.21-9.06,74.2-38.58,14-18.84,25.09-36.61,34.86-52.29,19.73-31.68,34-54.57,57.27-63.08,24.56-9,57.9-1.37,111.48,25.42a373.18,373.18,0,0,1,42.47,24.91v-3.63a376.31,376.31,0,0,0-41.13-24c-54.39-27.2-88.44-34.84-113.85-25.56-24.26,8.87-38.74,32.13-58.79,64.32-9.73,15.62-20.77,33.34-34.72,52.08-45.19,60.68-90.7,38.4-166.11,1.47-38.94-19.07-87.4-42.8-147.34-60-87.1-25-145.19-23.7-177.61,4.05C630,334.56,620.52,381.46,630,456.72c8.2,65.29,57.19,115.6,145.61,149.55,83.28,32,181.86,41.14,233.21,43.76,89.17,4.55,167.51,18.27,232.86,40.78,52.23,18,96.32,41.61,131,70.19a281.63,281.63,0,0,1,26.54,24.82Z" transform="translate(5.64 5.97)"/><path class="cls-1" d="M1399.22,717.8c-21.17-15.9-46.71-31.85-75.61-47-82.14-43-178.87-72.9-272.37-84.14-94.67-11.39-163.76-23.93-217.44-39.46-68.53-19.82-111.75-44.45-132.14-75.3-13.79-20.88-16.84-45-9-71.78,5.76-19.78,16.4-32.87,32.55-40,54.48-24.21,159,26.47,251.2,71.18,33.73,16.36,65.6,31.81,92.69,42.44,45.7,17.93,73.82,21.87,94,13.18,19.52-8.39,30.68-27.82,46.13-54.72,9.3-16.19,19.84-34.54,34.61-54.74,15.81-21.63,35.81-32.94,59.46-33.62,32.36-.92,67.48,18.25,96,39.21v-3.73c-44.35-32.27-76.21-39-96-38.48-24.62.7-45.41,12.43-61.8,34.85-14.86,20.33-25.44,38.76-34.78,55-30.18,52.55-44,76.54-136.45,40.24-27-10.58-58.8-26-92.48-42.34-92.8-45-198-96-253.73-71.23-16.76,7.45-28.27,21.56-34.21,42-8,27.64-4.87,52.62,9.43,74.27C720,505,763.72,530.07,833,550.1c53.84,15.57,123.09,28.14,217.92,39.55,93.15,11.2,189.51,41,271.34,83.82,29.34,15.37,55.47,31.85,77,48.26Z" transform="translate(5.64 5.97)"/><path class="cls-1" d="M1399.22,672.48c-57-49.54-134.25-69.26-194.94-84.73-58.76-15-101.22-25.81-96.6-55,1.35-8.52,13.12-7.93,33.82-6.15,19.16,1.65,43,3.7,65.47-3.91,26.62-9,44.89-29.33,55.88-62.1,7.72-23,20-36.15,36.36-39,30-5.21,69.35,24,100,53V470.4l-2.33-2.18c-40.42-37.18-73.45-53.86-98.2-49.57-17.57,3.05-30.59,16.85-38.68,41-24.16,72.05-80.78,67.19-118.26,64-20.42-1.75-35.18-3-37,8.67-2.35,14.81,5.85,26.17,25.79,35.73,17.8,8.54,43.39,15.07,73,22.62,61,15.57,139,35.47,195.68,85.86Z" transform="translate(5.64 5.97)"/><path class="cls-1" d="M1399.22,645.9c-19.38-12.21-40.69-29.47-59-48.1-27.44-27.88-43.7-53.74-45.77-72.82-1.12-10.34,2-18.5,9.37-24.27,26-20.44,68.38,13.62,95.43,40.68v-4.3c-5.56-5.48-11.69-11.17-18.14-16.58-14.94-12.53-28.66-21.11-40.76-25.53-15.45-5.63-28.37-4.5-38.38,3.37-8.21,6.45-11.74,15.52-10.5,26.95,4.23,39,62.66,96.12,107.78,124.13Z" transform="translate(5.64 5.97)"/><path class="cls-2" d="M1057.26,526.34l0,0c-.55-.39-55.65-40-119.25-77.12-85.64-49.93-145.1-71.68-176.75-64.64-9.83,2.19-17,7.22-21.3,15-16.12,29-1,58.87,43.89,86.48,39.79,24.51,103.36,47.08,170.06,60.38,27.41,5.47,58.58,9.81,81.87,9.81,17,0,29.87-2.33,33.88-8.24C1073.35,542.5,1069.18,535.22,1057.26,526.34Zm9.9,19.93c-1.92,2.84-9.29,7.49-37,6.79-20.28-.51-47.17-3.92-75.71-9.61-66.37-13.23-129.58-35.66-169.08-60-20.58-12.68-34.85-25.79-42.41-39-8.3-14.47-8.44-29.1-.43-43.49,3.87-7,10.38-11.51,19.33-13.5A56,56,0,0,1,774,386.28c82.87,0,278.9,140.61,281.48,142.47C1062.62,534.08,1070.44,541.44,1067.16,546.27Z" transform="translate(5.64 5.97)"/><path class="cls-1" d="M953.76,501.33l-.1-.07c-.29-.18-29.44-18.49-61.93-35.61C847.84,442.52,819,432.49,806,435.81a10.52,10.52,0,0,0-7,5c-5.83,10.48.59,21.57,19.08,33s49.27,22.85,82.65,30.83c6.35,1.52,31.46,7.3,46.32,7.3,5.35,0,9.37-.75,10.71-2.72C960,506,955.29,502.47,953.76,501.33Zm1.55,6.12c-1.67,2.46-19.94,2.31-53.85-5.8-33.09-7.92-63.66-19.31-81.78-30.47-16.87-10.39-22.93-20.13-18-28.95a7.59,7.59,0,0,1,5.09-3.51,20.15,20.15,0,0,1,5-.56c35.31,0,137.47,63.85,140.27,65.61C955.17,506.13,955.42,507.29,955.31,507.45Z" transform="translate(5.64 5.97)"/><path class="cls-1" d="M338.7,875.07c6.7,0,14.88-1.71,24.86-5.92C449.55,832.91,489,778,527.15,724.93l3.08-4.3A99.28,99.28,0,0,0,549,666.07a96.47,96.47,0,0,0-15-55.55c-10.8-17-24.12-27.12-39.57-30.08-18.85-3.6-40.82,3.58-65.3,21.33-82,59.42-142.26,211.73-115.63,259C317.62,868.05,325.1,875.07,338.7,875.07Zm-5.43-138c24-56.33,60.54-106,97.63-132.9,19.86-14.4,37.91-21.66,53.81-21.66a48.57,48.57,0,0,1,9.17.85c14.61,2.79,27.26,12.46,37.59,28.73A93.56,93.56,0,0,1,546,666a96.41,96.41,0,0,1-18.17,52.92l-3.09,4.3C486.8,775.93,447.6,830.48,362.4,866.39c-22.67,9.55-38.24,7.17-46.28-7.1C304,837.81,310.75,789.85,333.27,737.1Z" transform="translate(5.64 5.97)"/><path class="cls-2" d="M376.35,804.23c4.09,0,9.16-1.06,15.44-3.7,51.24-21.6,75.25-45,97.37-75.74a57.11,57.11,0,0,0,2.2-64.26c-6.34-10-14.16-15.9-23.26-17.64-11.06-2.11-23.9,2.07-38.18,12.42C408.35,671,387,698.46,372.82,728.92,359.19,758.2,355,784,361.87,796.2,364.19,800.31,368.46,804.23,376.35,804.23Zm-.81-74.05c14-30,35-57.09,56.14-72.45,11.36-8.23,21.65-12.37,30.69-12.37a27.54,27.54,0,0,1,5.17.48c8.25,1.57,15.41,7.06,21.28,16.3a54.11,54.11,0,0,1-2.1,60.9c-21.81,30.32-45.5,53.39-96.1,74.72-13.09,5.52-21.89,4.5-26.13-3C358.17,783.51,362.51,758.17,375.54,730.18Z" transform="translate(5.64 5.97)"/><path class="cls-1" d="M414.32,747.33a12.56,12.56,0,0,0,4.8-1.13c14.77-6.23,21.69-13,28.08-21.85a17.3,17.3,0,0,0,.66-19.44c-2-3.09-4.42-4.93-7.31-5.48-3.44-.66-7.36.59-11.66,3.7-13.1,9.5-24.28,33.09-19.61,41.38A5.44,5.44,0,0,0,414.32,747.33Zm16.33-41.77c3-2.2,5.74-3.31,8.07-3.31a6.59,6.59,0,0,1,1.27.12c2,.39,3.83,1.79,5.33,4.15a14.44,14.44,0,0,1-.56,16.07c-6.08,8.46-12.69,14.89-26.81,20.84-3.13,1.32-5.17,1.19-6.06-.4C408.57,737.14,417.34,715.21,430.65,705.56Z" transform="translate(5.64 5.97)"/><path class="cls-1" d="M1399.22,1315.09c-28.55-1.26-56.39-5-81-11-32.43-7.93-59.63-19.77-80.82-35.17-26-18.89-43.15-43.34-51-72.66-11-41.26-28.4-80.32-50.3-113-25.67-38.25-57.22-67.79-93.75-87.79C975,958.61,893.14,955.12,799,985.1c-114,36.3-202.73,74.44-267.53,102.29-82.71,35.54-128.27,55.12-138.65,33.56a7.49,7.49,0,0,1-.16-6.06c5.93-16.33,54.83-38.48,111.46-64.13,42.23-19.14,90.1-40.82,127.78-63.79,43.64-26.59,66.55-50.68,70-73.63,4.9-32.24,17.88-54.82,37.53-65.28,22.26-11.85,52.79-8.77,90.75,9.16,69.78,33,240.23,72.44,343.74,72.43,35.72,0,63.49-4.71,76.37-16,7.78-6.83,10-15.74,6.52-26.49-11.49-35.75,1.79-72.57,30.88-85.66,36.52-16.43,76.77,7.37,111.49,45.5v-5q-20.38-21.83-41.3-34.2c-25.52-15.06-50.89-18.26-71.42-9C1256,812.47,1242,850.87,1254,888.07c3.1,9.64,1.25,17.27-5.65,23.32-21.46,18.83-91,20.41-190.81,4.34-86.15-13.87-179.1-39.05-226-61.22-38.87-18.36-70.31-21.42-93.45-9.1-20.52,10.93-34,34.26-39.09,67.48C691.41,962.61,586.88,1010,502.88,1048c-59.6,27-106.68,48.33-113,65.85a10.45,10.45,0,0,0,.28,8.38c5.59,11.62,19.33,13.64,44.55,6.54,23.32-6.56,56.27-20.72,98-38.65,64.74-27.82,153.4-65.92,267.25-102.18,93.32-29.72,174.4-26.31,241,10.14,36.11,19.77,67.3,49,92.7,86.84,21.72,32.35,39,71.1,49.89,112,8,30,25.53,55,52.1,74.32,21.52,15.63,49.07,27.63,81.88,35.66,24.88,6.09,53,9.86,81.76,11.13Z" transform="translate(5.64 5.97)"/><path class="cls-1" d="M1399.22,1254.36c-46.79,10.93-83.73,9.22-112-5.08-41.94-21.18-60.28-67.39-73.86-114.17-14.36-49.43-55.7-85.9-88.92-115.21-22.31-19.68-39.94-35.23-40.66-47.55a12.63,12.63,0,0,1,3.58-9.48c9.14-10.19,38.14-3.79,74.86,4.32,29.52,6.52,66.27,14.64,104.61,16.84,17.71,1,29.35-2,35.61-9.17,9-10.38,5.59-27.79,1.95-46.23-5.08-25.68-10.33-52.23,14-66.81,8.1-4.86,17.07-5.85,26.66-3,16.18,4.88,34.74,21.08,54.26,47.17v-5.13c-16-20.77-34.66-39.25-53.39-44.91-10.44-3.16-20.22-2.07-29.07,3.25-26.11,15.66-20.4,44.51-15.37,70,3.5,17.69,6.81,34.4-1.27,43.67-5.61,6.44-16.45,9.1-33.17,8.14-38.1-2.19-74.71-10.27-104.14-16.77-39.14-8.64-67.42-14.89-77.73-3.4a15.68,15.68,0,0,0-4.34,11.66c.79,13.57,18.83,29.48,41.66,49.63,32.93,29.05,73.91,65.2,88,113.8,13.77,47.43,32.44,94.31,75.4,116,16.49,8.32,35.78,12.49,58.11,12.49q25,0,55.29-7Z" transform="translate(5.64 5.97)"/><path class="cls-1" d="M1399.22,1176.83c-23.58,6.08-52.36,9.61-75.84.71-17.24-6.53-29.73-19.08-37.13-37.3-10.21-25.16-28.12-48.56-42.52-67.37-14.17-18.53-26.41-34.53-22.58-41.74,2.39-4.48,11.09-6.2,26.62-5.26l5.2.31c46.45,2.81,69.76,4.22,81.27-6.33,5.62-5.14,8.28-13.09,8.62-25.77.48-17.47,9.82-32.1,23.24-36.39,10-3.18,21.31-.7,33.12,6.87v-3.7c-15.21-9.16-27-8.29-34-6-14.64,4.68-24.82,20.42-25.32,39.17-.33,11.8-2.68,19.09-7.65,23.64-10.58,9.69-34.91,8.22-79.07,5.54l-5.2-.31c-17-1-26.41,1.15-29.45,6.85-4.74,8.92,6.84,24,22.85,45,14.29,18.67,32.06,41.9,42.12,66.68,7.73,19,20.8,32.13,38.85,39,10.61,4,22.21,5.56,33.75,5.56,15.33,0,30.54-2.72,43.15-5.92Z" transform="translate(5.64 5.97)"/><path class="cls-1" d="M1399.22,1120c-24,.6-58-2.4-64.42-23.36-3.88-12.76-1.25-25.16,7.43-34.93,11.59-13.06,32.06-19.86,57-19.53v-3c-25.8-.32-47.08,6.85-59.24,20.55-9.39,10.58-12.25,24-8,37.8,4.56,15,21.56,23.46,50.53,25.25,3.82.23,7.6.33,11.24.33,1.89,0,3.72,0,5.52-.08Z" transform="translate(5.64 5.97)"/><path class="cls-1" d="M111.8,751.93c37.79,15.55,73.93,30.42,98.29,30.42,6.57,0,12.29-1.08,16.95-3.53,6.55-3.45,10.8-9.49,12.62-18,4.32-20-17-39.3-49.33-68.47-32-28.87-75.76-68.41-114.52-127.64-26.22-40.08-51-65.93-73.95-77.37v3.33c22.07,11.46,46,36.74,71.44,75.68,39,59.56,82.93,99.25,115,128.23,31.53,28.47,52.36,47.27,48.41,65.6-1.65,7.68-5.28,12.9-11.09,15.95-20.66,10.87-65.37-7.53-112.7-27C81.74,736.33,49.47,723.05,21.48,717a149.14,149.14,0,0,0-19.62-3v3a146.2,146.2,0,0,1,19,2.91C48.58,725.93,80.72,739.15,111.8,751.93Z" transform="translate(5.64 5.97)"/><path class="cls-1" d="M97.53,697.92c10.43,0,17-2.57,19.67-7.7,6.6-12.76-13.35-37.24-59.29-72.75-20.76-16-42.37-30.85-56-39.94v3.54c45.51,30.3,123.11,87.6,112.67,107.77-2.25,4.35-8.18,6.19-16.61,6.19-22.08,0-61.25-12.64-96.06-26v3.19c7.55,2.91,15.44,5.84,23.38,8.62C57.81,692.22,82,697.92,97.53,697.92Z" transform="translate(5.64 5.97)"/><path class="cls-1" d="M543.93,908.29a185.79,185.79,0,0,0-17.06,24.5c-11.26,19.1-28.79,35.12-41.6,46.82-12,11-19.24,17.57-17.15,22.18,1,2.23,3.8,3.73,12.23,3.73a153.8,153.8,0,0,0,15.87-1.06c46.7-5.05,150.41-76.25,150.24-110.27-.05-10.28-8.71-16.34-25.73-18C591.72,873.34,563,885.34,543.93,908.29Zm99.53-14.09c.07,14.44-21.6,38.86-56.54,63.74-33.91,24.13-69.64,41.22-91,43.53-19.41,2.1-24.33.67-25-.91-1.19-2.63,7.78-10.82,16.44-18.74,12.95-11.82,30.68-28,42.16-47.5a183.23,183.23,0,0,1,16.79-24.12,86.08,86.08,0,0,1,66.06-31.43c2.7,0,5.42.13,8.14.4C635.67,880.66,643.42,885.72,643.46,894.2Z" transform="translate(5.64 5.97)"/><path class="cls-1" d="M99.55,397.25c22.51,41.42,46.58,84,70.12,115.08,25.87,34.14,48.43,50.75,68.93,50.75h.65c20.38-.35,38.35-16.66,55-49.87,34.87-69.74,76.18-112.28,119.46-123,29.59-7.35,60-.09,90.32,21.58,23.34,16.67,39.87,22.21,50.54,16.91,15.72-7.79,16.58-36.85,17.57-70.49,1.1-36.94,2.33-78.81,24.42-98C606.8,251.3,620.6,248,638.7,250c47.36,5.38,92.47-1.75,130.44-20.61,36-17.88,63.88-45.19,80.58-79,15.89-32.12,20.54-68.27,13.45-104.53A193.27,193.27,0,0,0,848.64,1.53h-3.45C868.63,51,869.88,102.94,847,149.12c-16.41,33.18-43.81,60-79.23,77.61-37.45,18.59-82,25.62-128.77,20.31-18.71-2.12-33.68,1.55-44.47,10.91-23.09,20-24.35,62.57-25.46,100.13-.92,31.32-1.79,60.9-15.9,67.9-9.58,4.75-25.11-.7-47.46-16.67-31.09-22.21-62.31-29.62-92.79-22.06-44.16,11-86.15,54.06-121.43,124.61-16,32.11-33.17,47.88-52.32,48.21h-.6c-43.49,0-91.23-81.13-136.42-164.27-27.7-51-61.36-86-100.32-104.55v3.33C39.69,313,72.47,347.42,99.55,397.25Z" transform="translate(5.64 5.97)"/><path class="cls-1" d="M137.21,268.79c17.27,0,32.47-2.5,44.95-7.56,28.49-11.55,42.69-35.35,42.2-70.72-.47-34.66,8.81-60.45,28.38-78.85,48.32-45.42,152.34-37.55,262.48-29.22,16.22,1.23,33,2.5,49.55,3.59q24.13,1.59,44.46,1.59c62.08,0,97.34-11.11,105-33.16,5.38-15.57-3.57-34.52-18-52.93h-3.93c14.77,18.27,24.22,37,19.05,52C702.56,78.9,653.31,88.85,565,83c-16.53-1.08-33.3-2.35-49.52-3.58-110.81-8.38-215.48-16.3-264.76,30-20.21,19-29.8,45.52-29.32,81.07.47,34-13.1,56.86-40.32,67.9-35,14.18-91.92,7.69-156.28-17.79q-11.54-4.57-22.9-9.75v3.29q10.82,4.89,21.8,9.25C66,260.19,105.15,268.79,137.21,268.79Z" transform="translate(5.64 5.97)"/><path class="cls-1" d="M79.9,173.6c35.95-2.2,66.5-21.11,90.81-56.21l4-5.81C204.21,69,219,47.58,240.89,38.66s51.64-5.68,110.8.85q10.83,1.18,23,2.51c70.15,7.56,121,10.07,155.3,7.68,33.08-2.29,51.85-9,59.07-21.14,4.42-7.43,4.24-16.37.64-27h-3.13c3.62,10.23,4,18.69-.09,25.5-6.58,11-25.12,17.49-56.7,19.68C495.62,49.09,445,46.58,375,39q-12.21-1.32-23-2.52c-59.66-6.57-89.6-9.88-112.25-.64s-37.68,30.89-67.5,74l-4,5.8C144.49,150,114.7,168.46,79.72,170.6c-18,1.1-44.13-2-77.86-17.84v3.31C31.52,169.81,55.37,173.8,73,173.8Q76.64,173.8,79.9,173.6Z" transform="translate(5.64 5.97)"/><path class="cls-1" d="M120.87,103c14.27-6.69,24-18.1,29-33.92,7.26-23,8.92-46.23,7.71-67.57h-3c1.22,21.06-.41,44-7.56,66.67-4.73,15-14,25.79-27.46,32.1C87.37,115.38,37.43,103,1.86,90.75v3.17C25.78,102.1,56,110.23,83.21,110.23,96.91,110.22,109.86,108.16,120.87,103Z" transform="translate(5.64 5.97)"/><path class="cls-2" d="M737.38,75.33C717.53,114.46,629.85,109.1,628.86,109c-49.08,0-94.69-3.55-134.93-6.68-59.82-4.65-111.48-8.67-149.66,1.19-20.21,5.23-35.88,14.08-47.9,27.05-13,14-21.8,32.86-27,57.63-17.27,82.64-62.62,92.5-99.06,100.42-22,4.78-41,8.91-47.28,28.54-5.73,17.91.92,53.51,17,90.7,17.19,39.9,40.61,70.77,62.63,82.58a44.21,44.21,0,0,0,20.95,5.73c12.81,0,24.86-6.75,35.55-20.12,16.14-20.18,29.24-42.18,41.91-63.45,23.67-39.76,44.12-74.09,75.81-81.79,19.52-4.74,42.16,1.14,69.2,18,35.8,22.3,60.63,29.3,75.92,21.42,19-9.78,20.87-40.13,22.87-72.26,2.7-43.21,5.48-87.86,49.94-85.93q15.26.67,29.52.67c96,0,158.28-22.73,185.23-67.7,21.16-35.32,15.82-77.86,7.62-107.33A262.81,262.81,0,0,0,804.06,1.53h-3.29a260.12,260.12,0,0,1,13.53,37c14.55,52.33,4.05,85.94-7.33,104.92-29,48.4-100.36,70.46-212,65.56-21.26-.93-35.47,8.09-43.41,27.58-6.89,16.89-8.29,39.4-9.65,61.16-2,31.26-3.79,60.79-21.25,69.79-14.27,7.35-38.14.38-73-21.3C419.89,329,396.5,323,376.16,327.92c-32.92,8-53.66,42.83-77.68,83.16-12.61,21.19-25.66,43.1-41.67,63.12-15.57,19.45-33.31,24-52.74,13.62-21.45-11.5-44.36-41.83-61.3-81.12-15.52-36-22.29-71.62-16.86-88.6,5.76-18,23.1-21.76,45.07-26.53,18.36-4,39.17-8.52,57.76-22.67,21.5-16.37,35.76-42.56,43.59-80.06,9.72-46.5,32.14-71.91,72.7-82.39,17-4.4,36.85-6,59-6,26.85,0,57.06,2.35,89.71,4.89,40.27,3.14,85.92,6.69,135,6.69h.07a259.53,259.53,0,0,0,47.53-2.1c33.55-4.81,55-16,63.76-33.24,9.48-18.69,3.35-43.91-18.2-75.16h-3.65C740.05,32.56,746.51,57.33,737.38,75.33Z" transform="translate(5.64 5.97)"/><path class="cls-1" d="M745,111.59c-16.45,20.46-66,28.95-143.26,24.57a1083.63,1083.63,0,0,1-113.63-13.1,215.66,215.66,0,0,0-70.93,1.25c-22.06,4.25-41.31,12.15-57.2,23.47C340.11,162,325.46,181.55,316.46,206c-17.39,47.27-36.93,79.6-59.73,98.82-19.84,16.73-39.1,21.14-57.12,24.22-26.26,4.5-35.18,21.31-38,34.63-5.57,26,8,61.15,28.92,75.25,5.65,3.8,11.46,5.7,17.13,5.7a26.56,26.56,0,0,0,15.09-4.86c19.68-13.42,39.88-39.16,61.26-66.41,40.69-51.87,82.76-105.5,125.09-78.56,6.19,3.94,12.17,7.85,17.94,11.63,31,20.31,55.56,36.35,71.1,28.83,9.19-4.46,14.36-16.4,16.26-37.6,3.92-43.81,11.13-76.8,33.58-95.41C563.94,189,586.77,184,617.72,187c86.76,8.46,144-6.87,170.09-45.58,20.9-31,17.33-71.33,10.65-99.71a265.6,265.6,0,0,0-13.08-40.2h-3.25a263.18,263.18,0,0,1,13.42,40.95c6.53,27.79,10.05,67.23-10.23,97.29C759.88,177.49,703.59,192.38,618,184c-31.79-3.1-55.34,2.1-72,15.9-23.24,19.27-30.66,52.9-34.65,97.46-1.77,19.76-6.54,31.26-14.58,35.16-14,6.78-37.9-8.85-68.15-28.65-5.78-3.78-11.76-7.69-18-11.64-20.06-12.77-41.76-9.58-66.35,9.75-21.4,16.82-42.4,43.59-62.71,69.48-21.24,27.07-41.29,52.63-60.59,65.79-11.32,7.72-21.94,3.8-28.85-.85-20.08-13.49-33-47.2-27.66-72.13,2.66-12.41,11-28.09,35.61-32.3,18.43-3.15,38.13-7.67,58.54-24.88,23.21-19.57,43-52.31,60.61-100.08,8.79-23.87,23.06-43,42.44-56.8,15.53-11.07,34.36-18.8,56-23a205.32,205.32,0,0,1,38.67-3.55A194.27,194.27,0,0,1,487.6,126a1083.9,1083.9,0,0,0,114,13.14C681,143.66,730,135,747.37,113.47c17.08-21.25,21-49.94,11.48-83a176,176,0,0,0-11.42-29h-3.36A173.31,173.31,0,0,1,756,31.32C762.44,53.68,765.8,85.75,745,111.59Z" transform="translate(5.64 5.97)"/><path class="cls-3" d="M458.59,148.21h0a46.3,46.3,0,0,0-33.6,3c-12,5.86-46.68,28.54-47.78,55-.64,15.18,9.57,29.14,30.33,41.5,12.39,7.37,22.7,17.93,31.8,27.24,9.59,9.82,17.33,17.75,24,17.75a7.77,7.77,0,0,0,1.8-.21c4.08-.93,7.16-4.9,9.68-12.49,9.62-28.84,23.41-81.71,7.78-111.81A38.67,38.67,0,0,0,458.59,148.21ZM472,279c-2.14,6.41-4.59,9.85-7.51,10.52-5.45,1.25-13.59-7.07-23-16.71-8.77-9-19.68-20.16-32.42-27.73-19.74-11.75-29.45-24.8-28.87-38.79,1.05-25,34.48-46.74,46.1-52.39a44.37,44.37,0,0,1,19.42-4.55,41.85,41.85,0,0,1,12,1.75A35.78,35.78,0,0,1,480,169.51C486.45,182,494,212.84,472,279Z" transform="translate(5.64 5.97)"/><path class="cls-1" d="M1399.22,233.38C1344,194,1277.31,161.2,1224.54,179.57c-38.24,13.31-64.68,52.08-78.57,115.25-6.42,29.19-22.39,47.6-47.45,54.72-47,13.36-122.16-17.45-174.71-71.66-42.12-43.44-59-91.11-46.43-130.78,11.69-36.81,15-76.76,9.85-118.73q-1.63-13.29-4.4-26.84h-3.06q2.82,13.74,4.48,27.21c5.11,41.54,1.83,81.05-9.73,117.46C861.57,187,878.75,235.71,921.65,280c25,25.81,56.45,47.5,88.51,61.07,22.83,9.68,44.83,14.63,64.15,14.63a91.66,91.66,0,0,0,25-3.24c25.84-7.34,43-27,49.56-57,13.66-62.08,39.44-100.12,76.62-113.06,52.18-18.16,118.73,15.18,173.7,54.65Z" transform="translate(5.64 5.97)"/><path class="cls-1" d="M1399.22,155.51c-40.81-34.93-104.79-65.78-156.75-55.26-32.31,6.55-56.86,28-73,63.66-22.29,49.38-50.63,84-84.22,103-36,20.32-68,16.91-88.48,10.47a111.86,111.86,0,0,1-60.34-46.19,103.57,103.57,0,0,1-15.12-75.36C931.42,102,935.27,50.15,932.83,1.53h-3c2.44,48.43-1.39,100.13-11.44,153.72a106.59,106.59,0,0,0,15.54,77.54,115,115,0,0,0,62,47.44,109.09,109.09,0,0,0,32.72,5,118.28,118.28,0,0,0,58.14-15.74c34.15-19.27,62.91-54.38,85.47-104.35,15.7-34.77,39.53-55.61,70.83-62,25.42-5.14,55.9-.49,88.16,13.47a269.64,269.64,0,0,1,68,42.85Z" transform="translate(5.64 5.97)"/><path class="cls-1" d="M746.9,1368.44a11.59,11.59,0,0,0-9.67-3.07c-12.88,1.43-30.55,19.86-43.84,36.16h3.93c12.73-15.39,28.86-31.92,40.24-33.18a8.56,8.56,0,0,1,7.27,2.27c6.86,6.5,14.58,18.43,21.59,30.91h3.49C762.56,1388.34,754.32,1375.48,746.9,1368.44Z" transform="translate(5.64 5.97)"/><path class="cls-1" d="M1399.22,96.46a151.76,151.76,0,0,1-27-.24c-34.11-3.15-75.32-16.42-113-36.39-43.83-23.2-80.39,11.38-122.72,51.42-32.22,30.48-68.74,65-113.87,77.45-15.86,4.37-28.22,2.14-36.71-6.62-28.94-29.87-9.57-127.77,3.64-180.55h-3.13c-4,16.08-8.58,36.19-12.16,57.18-11.12,65.27-7.93,107.48,9.5,125.46,6.27,6.47,14.37,9.72,24.18,9.72a58.56,58.56,0,0,0,15.48-2.3c45.85-12.62,82.66-47.44,115.13-78.16,41.5-39.25,77.33-73.15,119.25-51,38.63,20.45,79.19,33.49,114.19,36.73a153.87,153.87,0,0,0,27.31.25Z" transform="translate(5.64 5.97)"/><path class="cls-1" d="M1030.08,133.23a35.72,35.72,0,0,0,4.74.32c26.56,0,56.32-29.23,72.23-47.37,21.06-24,41.57-55.24,55.86-84.65h-3.34c-14.14,28.79-34.19,59.21-54.77,82.67-28.44,32.43-54.83,48.78-74.3,46.05-8.12-1.13-13.43-4.77-16.21-11.13-10.55-24,17.85-79.75,40.23-117.59H1051c-4.45,7.56-9.1,15.77-13.6,24.26-24.46,46.08-33.16,77.88-25.85,94.54C1014.73,127.61,1021,132,1030.08,133.23Z" transform="translate(5.64 5.97)"/><path class="cls-1" d="M1070.09,67.26a15,15,0,0,0,2,.13c6,0,15.51-3.62,28.74-18.71A153,153,0,0,0,1125.47,9.3a82.09,82.09,0,0,0,2.81-7.77h-3.13c-.66,2.07-1.48,4.29-2.45,6.62-11.27,27.16-37.08,58.26-52.19,56.13-2.82-.39-4.64-1.63-5.59-3.78-5.1-11.64,15.56-45.93,24.48-59h-3.61c-6.43,9.66-29.73,46.25-23.61,60.18C1063.55,64.85,1066.22,66.71,1070.09,67.26Z" transform="translate(5.64 5.97)"/><path class="cls-1" d="M1399.22,56.88c-13.68,7.41-29.55,10.06-47.4,7.85-19.86-2.45-42.2-10.86-66.4-25-21.09-12.3-40-26.86-53.43-38.23h-4.62c13.69,11.74,33.8,27.56,56.49,40.8,24.56,14.32,47.29,22.86,67.57,25.38a101.29,101.29,0,0,0,12.36.78,76.61,76.61,0,0,0,35.43-8.19Z" transform="translate(5.64 5.97)"/><path class="cls-1" d="M857.2,897.74c-46.17-10.71-79.29-10.43-98.43.83-25.67,15.1-49.2,39.95-44.13,55.39,2.83,8.62,13.49,13,31.76,13a157.26,157.26,0,0,0,16-.9l8.1-.82c32.6-3.33,77.26-7.89,114.76-13.48,60.42-9,68.4-15.74,68.6-20.6.16-3.6-3.49-8.45-33.2-14A514.37,514.37,0,0,0,857.2,897.74ZM950.82,931c-.1,2.39-6.74,8.91-66.05,17.75-37.43,5.58-82,10.13-114.63,13.46L762,963c-26.11,2.68-41.53-.79-44.55-10-2-6.17,1.57-15.11,10.14-25.18,8.09-9.5,20-19.23,32.66-26.68,10.11-5.95,23.89-8.16,38.81-8.16,19,0,39.91,3.6,57.39,7.65a509,509,0,0,1,63.16,19.28l.27.08C948.79,925.42,950.87,929.79,950.82,931Z" transform="translate(5.64 5.97)"/><path class="cls-1" d="M813.1,235.61c-22.19,10.66-33.06,20.11-32.31,28.11.54,5.81,6.84,10.27,19.26,13.6a150.68,150.68,0,0,0,38.31,5.49c16.91,0,29.62-4,33.63-11.59,5.17-9.78-5.18-21.65-14.76-29.88A40.67,40.67,0,0,0,813.1,235.61Zm56.24,34.21c-5.87,11.1-36.6,13.17-68.51,4.6-10.76-2.89-16.66-6.68-17.06-11-.6-6.43,10.28-15.35,30.62-25.13a38,38,0,0,1,16.42-3.74,37.51,37.51,0,0,1,24.46,9C867.83,254.4,872.7,263.46,869.34,269.82Z" transform="translate(5.64 5.97)"/><path class="cls-1" d="M1096.05,1370.54c-52.12-6.62-82.67-50.81-121.34-106.76-10.81-15.64-22-31.81-34.57-48.58-31.58-42.12-67-67.42-105.14-75.2-43.28-8.81-90.86,4.77-141.41,40.37-55.51,39.09-135.84,102.05-204.66,160.39-19.3,16.37-44.52,38.16-69.22,60.77h4.42c19.55-17.83,41.88-37.41,66.74-58.48,68.76-58.29,149-121.18,204.45-160.23C789.46,1116.53,871,1128,937.74,1217c12.55,16.72,23.71,32.87,34.5,48.48,39.1,56.57,70,101.24,123.44,108,37.85,4.81,59.61,14.23,64.76,28h3.17C1158.69,1386,1136,1375.62,1096.05,1370.54Z" transform="translate(5.64 5.97)"/><path class="cls-1" d="M811.9,1254.31c-18.88-8.26-38.3-7.29-57.73,2.89-48.07,25.18-91.66,55-129.55,88.71a487.34,487.34,0,0,0-53.89,55.62h4c29.63-35.67,86.75-92.4,180.8-141.67,18.58-9.73,37.13-10.68,55.14-2.8,36.25,15.85,64.68,64.91,82.14,103.28,6.66,14.64,12.27,28.86,16.76,41.19h3.19c-4.57-12.62-10.33-27.29-17.2-42.4C869.87,1302.61,841.71,1267.34,811.9,1254.31Z" transform="translate(5.64 5.97)"/><path class="cls-1" d="M1219.16,786.67a31.91,31.91,0,0,0,7.93,1c13.42,0,22.81-9.45,26.26-19.71,4.21-12.51.91-29.26-16.31-36.48-27.77-11.66-47.32-15.17-58.1-10.46-4.85,2.12-7.22,7.12-6.66,14.06.72,8.9,6,20,14.17,29.75C1195.67,775.87,1207.29,783.61,1219.16,786.67Zm-39-62.86a25.42,25.42,0,0,1,10.16-1.77c10.79,0,26.24,4.13,45.57,12.24,15.45,6.49,18.41,21.53,14.63,32.76s-14.72,20.81-30.61,16.72c-25.37-6.54-43.38-33.32-44.63-48.88C1175,730.94,1175.54,725.82,1180.15,723.81Z" transform="translate(5.64 5.97)"/><path class="cls-1" d="M350.72,1029c-9.81,5.79-10.43,16.16-6.86,23.36,2.79,5.62,8.6,10.41,16,10.41a19.37,19.37,0,0,0,7.31-1.51c17-7,27-13.91,29.61-20.69,1.27-3.23.09-6.61-3.32-9.52C385.55,1024.34,365.47,1020.3,350.72,1029ZM394,1039.49c-2.31,5.9-12,12.47-28,19-9,3.69-16.42-1.28-19.49-7.46s-2.5-14.6,5.7-19.44a35.41,35.41,0,0,1,17.95-4.53c8.85,0,17.14,2.73,21.31,6.29C393.17,1034.77,395,1037,394,1039.49Z" transform="translate(5.64 5.97)"/><path class="cls-1" d="M441.44,1336.24c13.95-5.7,56.31-27.34,60.16-37.16a5,5,0,0,0-1.66-5.9c-9.65-8.22-57.71-6.34-77.68,5.45-11.43,6.75-12.16,18.85-8,27.23,3.25,6.56,10,12.14,18.64,12.14A22.51,22.51,0,0,0,441.44,1336.24Zm-24.5-11.71c-3.68-7.42-3-17.51,6.84-23.31,18.28-10.79,65.59-13.11,74.21-5.76a2,2,0,0,1,.81,2.52c-3.06,7.83-40.79,28.25-58.5,35.48C429.49,1337.88,420.62,1331.93,416.94,1324.53Z" transform="translate(5.64 5.97)"/><path class="cls-1" d="M83.39,70.23c16.2-11.1,10.85-46.44,5.51-68.7H85.77c1.36,5.63,2.75,12.14,3.77,18.86C92.19,37.73,93,60,81.69,67.76c-13.19,9-40-2.76-79.83-35.07v3.86c30.7,24.65,54,37.05,69.58,37.05A20.63,20.63,0,0,0,83.39,70.23Z" transform="translate(5.64 5.97)"/><path class="cls-1" d="M634.81,726.85c11.24,4.26,26.88,5.78,41.56,5.78,6.57,0,13-.3,18.66-.81,18.35-1.62,39.12-6,42.41-13.51,1.14-2.6.76-6.59-7.57-10.79h0a295.3,295.3,0,0,0-36.19-13.85c-26.71-8.18-46.7-9.53-59.42-4a24.31,24.31,0,0,0-14.13,15.44C618,711.67,618.83,720.8,634.81,726.85ZM623,706a21.47,21.47,0,0,1,12.46-13.61c5-2.15,11-3,17.5-3,31.23,0,74.58,20.38,75.62,20.87,3.43,1.73,7.28,4.33,6.15,6.89-2.21,5-18.62,9.85-39.92,11.73-23.12,2-45.69.22-58.89-4.78C624.81,719.86,620.47,713.78,623,706Z" transform="translate(5.64 5.97)"/></svg>